<svg width="942" height="111" viewBox="0 0 942 111" fill="none" xmlns="http://www.w3.org/2000/svg">
<g clip-path="url(#clip0)">
<path d="M1043.85 73.1916C1016.46 88.2346 973.797 106.66 922.492 105.579C868.748 104.451 855.81 83.5703 792.771 78.798C726.614 73.7939 717.968 95.3545 648.583 93.2077C568.746 90.7366 564.902 61.8862 498.358 62.0715C416.237 62.3032 404.688 106.397 323.94 106.768C249.384 107.108 241.463 69.6394 167.679 71.3846C94.5735 73.1144 74.595 110.583 3.32706 111C-48.3021 111.293 -88.7531 91.9567 -115 77.2999V-0.0001297H1044L1043.85 73.1916Z" fill="#9CDDE8"/>
<g clip-path="url(#clip1)">
<path d="M-100.846 73.1916C-73.4563 88.2346 -30.7973 106.66 20.5076 105.579C74.2519 104.451 87.19 83.5703 150.229 78.798C216.386 73.7939 225.032 95.3545 294.417 93.2077C374.254 90.7366 378.098 61.8862 444.642 62.0715C526.763 62.3032 538.312 106.397 619.06 106.768C693.616 107.108 701.537 69.6394 775.321 71.3846C848.426 73.1144 868.405 110.583 939.673 111C991.302 111.293 1031.75 91.9567 1058 77.2999V-0.000131407H-101L-100.846 73.1916Z" fill="#9CDDE8"/>
</g>
</g>
<defs>
<clipPath id="clip0">
<rect width="942" height="111" fill="white" transform="translate(942 111) rotate(-180)"/>
</clipPath>
<clipPath id="clip1">
<rect width="292" height="111" fill="white" transform="matrix(1 0 0 -1 766 111)"/>
</clipPath>
</defs>
</svg>
